HIERARCHY
ROOT Hips
{
  OFFSET 2.26061 22.2878 23.7974
  CHANNELS 6 Xposition Yposition Zposition Zrotation Xrotation Yrotation
  JOINT LeftUpLeg
  {
    OFFSET 8.64259 1.95398 -2.38835
    CHANNELS 3 Zrotation Xrotation Yrotation
    JOINT LeftLeg
    {
      OFFSET 43.7702 0 0
      CHANNELS 3 Zrotation Xrotation Yrotation
      JOINT LeftFoot
      {
        OFFSET 40.6238 0 0
        CHANNELS 3 Zrotation Xrotation Yrotation
        JOINT LeftToeBase
        {
          OFFSET 12.7242 0 0
          CHANNELS 3 Zrotation Xrotation Yrotation
          End Site
          {
            OFFSET 0 0 0
          }
        }
      }
    }
  }
  JOINT RightUpLeg
  {
    OFFSET -8.2249 1.95398 -2.59336
    CHANNELS 3 Zrotation Xrotation Yrotation
    JOINT RightLeg
    {
      OFFSET 43.5653 0 0
      CHANNELS 3 Zrotation Xrotation Yrotation
      JOINT RightFoot
      {
        OFFSET 40.6238 0 0
        CHANNELS 3 Zrotation Xrotation Yrotation
        JOINT RightToeBase
        {
          OFFSET 12.7242 0 0
          CHANNELS 3 Zrotation Xrotation Yrotation
          End Site
          {
            OFFSET 0 0 0
          }
        }
      }
    }
  }
  JOINT Spine
  {
    OFFSET 0.165834 0.87714 6.61349
    CHANNELS 3 Zrotation Xrotation Yrotation
    JOINT Spine1
    {
      OFFSET 7.38963 1.71661e-005 0
      CHANNELS 3 Zrotation Xrotation Yrotation
      JOINT Spine2
      {
        OFFSET 11.9445 1.14441e-005 0
        CHANNELS 3 Zrotation Xrotation Yrotation
        JOINT Spine3
        {
          OFFSET 14.7254 4.19617e-005 0
          CHANNELS 3 Zrotation Xrotation Yrotation
          JOINT Spine4
          {
            OFFSET 10.9679 0 0
            CHANNELS 3 Zrotation Xrotation Yrotation
            JOINT RightShoulder
            {
              OFFSET 2.46616 -1.6653 3.69651
              CHANNELS 3 Zrotation Xrotation Yrotation
              JOINT RightArm
              {
                OFFSET 13.0012 0 0
                CHANNELS 3 Zrotation Xrotation Yrotation
                JOINT RightForeArm
                {
                  OFFSET 28.7848 1.52588e-005 0
                  CHANNELS 3 Zrotation Xrotation Yrotation
                  JOINT RightHand
                  {
                    OFFSET 26.5688 1.52588e-005 0
                    CHANNELS 3 Zrotation Xrotation Yrotation
                    End Site
                    {
                      OFFSET 0 0 0
                    }
                  }
                }
              }
            }
            JOINT LeftShoulder
            {
              OFFSET 2.38034 -1.29275 -3.7523
              CHANNELS 3 Zrotation Xrotation Yrotation
              JOINT LeftArm
              {
                OFFSET 16.3182 6.10351e-005 0
                CHANNELS 3 Zrotation Xrotation Yrotation
                JOINT LeftForeArm
                {
                  OFFSET 27.0901 0 0
                  CHANNELS 3 Zrotation Xrotation Yrotation
                  JOINT LeftHand
                  {
                    OFFSET 24.5451 1.52588e-005 0
                    CHANNELS 3 Zrotation Xrotation Yrotation
                    End Site
                    {
                      OFFSET 0 0 0
                    }
                  }
                }
              }
            }
            JOINT Neck
            {
              OFFSET 5.0226 -0.0266342 0
              CHANNELS 3 Zrotation Xrotation Yrotation
              JOINT Head
              {
                OFFSET 6.69363 2.86102e-005 0
                CHANNELS 3 Zrotation Xrotation Yrotation
                End Site
                {
                  OFFSET 0 0 0
                }
              }
            }
          }
        }
      }
    }
  }
}
MOTION
Frames:	12
Frame Time:	0.0416667
22.2839 90.1789 -56.8857 74.9887 -41.9573 77.8509 -175.721 12.0955 82.793 -32.7883 10.2569 0.793458 75.9849 20.7387 13.8518 41.5279 10.4326 5.45516 -176.337 36.7863 88.7187 -77.6567 -1.34934 -4.94978 58.268 -1.94323 -1.1814 34.9767 0.362003 -4.40341 -0.291499 7.51606 -89.83 11.8431 -0.49982 0.391312 0.172161 -0.482111 0.412929 -22.3635 -0.594316 0.223008 -2.3509 -0.594314 0.223009 94.5261 -53.4545 -93.3578 14.1911 -17.5827 13.3368 -11.6256 -14.4102 -71.1465 -25.9827 -0.304522 -3.12653 -99.6566 -50.8633 64.8114 -15.6713 13.2105 6.69804 10.4249 -0.0737591 -90.9349 31.4579 1.85543 2.03415 13.7644 -1.59976 3.0197 3.9873 -2.32712 -1.02222 
16.1199 89.9316 -61.2369 78.2875 -44.1752 78.8551 -175.54 18.564 82.3618 -40.7441 8.97864 0.394214 74.2729 19.4012 15.0437 42.3643 11.2019 6.00366 -177.163 24.6841 87.3079 -75.3057 -3.27727 -6.26716 54.1615 -0.339815 -0.104967 31.2925 0.367245 -5.72298 0.264607 7.81265 -89.7411 11.2471 0.647183 0.452928 -0.423741 0.666499 0.424001 -22.959 0.481146 0.626494 -2.94633 0.481134 0.626483 94.275 -53.1351 -93.7745 14.4157 -16.3065 9.62219 -12.085 -13.4533 -72.5074 -25.9242 -0.606476 -1.85852 -100.89 -52.5171 63.6578 -19.451 12.9112 12.1098 9.29964 -2.38586 -81.1931 30.7132 1.73537 1.77639 13.348 -2.77328 4.92111 4.0754 -3.99647 -2.4945 
10.5404 91.0491 -65.2808 78.1084 -47.288 79.5145 -174.605 23.2725 84.074 -41.3898 7.75278 0.115489 73.6406 17.0081 12.925 42.7285 11.6121 6.93624 -179.807 12.975 87.1412 -63.2913 -7.72504 -7.58506 50.7525 1.31746 1.20826 32.3008 0.267076 -2.7076 0.802591 7.7541 -89.8373 11.3655 1.67295 0.156003 -0.304347 1.67818 0.0821995 -22.8471 1.5487 0.651702 -2.83446 1.54871 0.651692 92.8039 -50.8468 -96.3621 15.8548 -17.2683 6.71782 -10.4301 -11.4676 -75.0188 -26.071 -0.53798 -2.30198 -99.0564 -52.5978 66.273 -24.2697 13.0768 18.7754 8.29753 0.216884 -73.9701 32.125 2.03524 2.46922 11.4509 -3.40977 5.11689 5.21361 -4.58392 -2.20107 
4.98106 92.0133 -69.11 74.9422 -49.7131 76.8477 -174.416 28.3817 85.0506 -39.4181 8.48012 -0.242652 71.0818 14.6858 11.7545 42.9319 12.2774 11.3017 177.327 5.79661 85.744 -50.8416 -9.9274 -8.55799 53.9197 0.882358 0.85395 34.0117 0.347025 -2.47664 1.11391 7.50425 -89.8052 11.8662 2.30682 0.142612 0.197336 2.31086 0.0408864 -22.3527 2.15726 0.829635 -2.34006 2.15725 0.829638 93.1681 -49.4519 -96.0493 14.9875 -18.4472 1.661 -14.5428 -11.6016 -79.3554 -23.8411 -0.306624 -3.11111 -96.7657 -52.664 69.5482 -28.562 11.9602 25.0608 4.1593 0.138464 -68.1164 33.1046 1.88251 1.78003 13.0817 -2.917 6.17576 2.5984 -4.39988 -2.85697 
-1.10885 92.8158 -73.0765 73.0971 -52.1444 76.9126 -174.045 32.9008 88.4301 -37.9628 7.86372 -0.176887 70.0126 11.3829 6.02694 41.9189 11.5533 13.6173 176.555 1.02521 87.1355 -39.0113 -10.7084 -8.52589 53.6216 1.01458 0.966499 42.6427 0.636925 -0.211478 1.32671 7.38805 -89.9157 12.1023 2.67731 -0.126989 0.434052 2.66912 -0.244789 -22.1222 2.59162 0.684076 -2.10957 2.59161 0.684074 92.5495 -48.8057 -97.1305 14.4908 -18.66 -2.73912 -18.16 -10.4297 -84.4073 -23.6658 -1.01492 0.241604 -95.7229 -51.5249 70.7006 -31.6359 10.279 30.0523 3.02337 0.867732 -60.733 33.3565 1.65595 1.03897 13.6399 -2.40856 6.48189 2.39845 -4.00564 -2.99335 
-7.53543 92.7173 -77.2922 70.6578 -54.3186 74.4833 -173.36 37.409 90.0236 -36.3854 6.37757 -0.704657 70.4401 10.5734 4.06041 41.8799 11.5898 14.3268 175.447 0.0595902 87.1925 -31.5535 -11.494 -7.57971 58.0261 -0.650341 -0.248476 52.8493 0.818805 -2.61124 1.40371 7.41861 -89.8231 12.0396 2.87424 0.0382437 0.371859 2.87313 -0.0884064 -22.187 2.72974 0.900948 -2.17437 2.72978 0.900957 92.6102 -48.504 -97.0936 14.3345 -17.6213 -7.79093 -19.4092 -9.28514 -84.8839 -24.6555 -1.02304 0.20393 -96.7175 -51.3264 69.2036 -32.6995 10.6217 31.5416 2.50044 2.68215 -51.9057 32.7278 1.88937 1.90062 15.2594 -1.60645 7.15129 2.26586 -3.48282 -3.13387 
-14.2551 92.4837 -81.4295 73.0848 -54.9561 74.4398 -171.884 37.8312 89.9303 -32.2425 4.41569 -1.79223 70.9274 10.5734 2.80696 41.9663 11.6374 13.9595 174.618 0.517645 86.9527 -30.5916 -11.6691 -7.35656 67.853 -4.18617 -2.22655 52.8313 0.166192 -7.09081 1.15804 7.73865 -89.6342 11.3932 2.47498 0.479216 -0.275469 2.49368 0.369755 -22.8258 2.21649 1.20123 -2.81316 2.21649 1.20121 92.1441 -48.9301 -97.7398 13.8596 -16.4983 -11.2552 -18.6784 -8.08088 -85.8561 -23.327 -0.0801906 -4.13546 -98.0327 -52.5144 67.6971 -32.0568 13.4529 30.1221 -0.867868 3.00695 -41.9451 30.1976 1.71846 1.81675 14.9612 -1.00043 6.98227 3.96533 -2.82749 -2.42096 
-19.8554 92.6175 -85.2878 77.218 -54.7478 76.5555 -171.289 35.9992 89.9475 -26.5818 4.90252 -2.45329 68.1743 8.53609 3.88485 44.0244 13.666 13.917 173.704 0.875904 87.0847 -29.5163 -9.28472 -6.17756 74.9334 -6.85483 -3.2219 48.3168 0.383415 -5.46141 0.93323 8.00974 -89.5981 10.8502 2.04394 0.608313 -0.819207 2.06875 0.51772 -23.3635 1.76661 1.19463 -3.35086 1.7666 1.19462 91.6664 -49.9783 -98.2701 13.334 -15.3108 -10.9407 -17.5034 -8.04472 -84.3533 -25.9141 -0.0615393 -4.16153 -99.7246 -53.32 65.5774 -31.1988 15.8146 26.9591 -0.471771 8.80723 -32.7391 24.9454 1.6702 2.83394 12.8861 -0.816263 6.37989 5.2087 -2.30008 -0.961929 
-24.3651 92.9391 -88.3852 78.139 -54.5189 77.8777 -170.919 36.4997 91.3784 -26.9959 5.53161 -2.95619 65.61 5.45286 3.69223 44.0482 13.704 14.0281 174.648 1.39112 89.4904 -26.3479 -2.63389 -4.39237 79.4345 -8.98782 -3.90653 41.3007 0.443836 -4.2518 0.809381 7.97772 -89.7282 10.9159 1.73717 0.376546 -0.753899 1.75205 0.299687 -23.2962 1.54367 0.881334 -3.2836 1.54366 0.881324 91.5102 -50.822 -98.3379 13.0774 -14.6104 -8.91251 -16.0029 -9.61246 -81.8417 -26.7032 -0.489485 -2.3898 -99.5277 -53.232 65.8241 -30.2544 14.1623 25.7382 0.844532 10.3216 -29.4205 15.3054 0.880151 1.88025 10.8186 -0.921013 5.79219 5.46646 -2.14289 -0.651918 
-28.1206 93.8306 -91.0948 80.917 -53.4523 79.9746 -170.993 34.098 91.1682 -29.2222 7.72673 -2.5832 62.7458 3.80981 4.08843 43.0485 12.5546 12.6865 174.316 2.41345 90.3753 -25.7526 -1.34027 -3.39943 79.4539 -8.52372 -3.69726 37.9209 0.385831 -4.60041 0.620568 8.03197 -89.7965 10.8087 1.3297 0.280696 -0.861569 1.34075 0.221888 -23.401 1.18383 0.667396 -3.38836 1.18384 0.667391 91.9891 -52.4451 -97.3031 12.1575 -14.4114 -5.86075 -14.3087 -10.3004 -79.0753 -24.2183 -0.665526 -1.49413 -99.008 -52.8341 66.4208 -29.2951 11.9277 25.8284 1.19398 6.79915 -30.5479 8.44888 0.319342 -0.100244 9.19182 -1.16945 5.08701 6.15835 -2.12036 -0.0233397 
-31.0304 94.8702 -93.5153 82.4365 -52.9444 81.9926 -170.995 31.6241 91.6032 -34.0999 8.05158 -2.0346 60.7596 2.57978 4.16079 44.7579 13.8186 10.0341 174.211 3.82792 91.1763 -25.3622 -1.79086 -2.36857 77.0986 -7.36105 -3.35614 36.7095 0.38162 -2.95942 0.562687 7.96543 -89.9579 10.9436 1.13984 -0.0242771 -0.726882 1.13769 -0.0744345 -23.2658 1.09443 0.319458 -3.25319 1.09445 0.319462 92.0558 -53.3428 -97.0367 12.0675 -13.8301 -1.62685 -15.2656 -12.3745 -75.8177 -23.204 -0.745599 -0.950498 -98.8753 -52.2596 66.4153 -27.9377 10.9608 24.928 0.917177 3.98884 -32.2552 3.96777 0.0567175 -1.71184 7.27411 -1.81052 3.97449 7.03851 -2.3874 0.844956 
-33.7921 95.6638 -95.6132 83.4934 -53.6233 82.6583 -170.168 28.1431 91.5928 -39.3028 7.31079 -2.18645 58.7822 1.02318 3.32174 44.0844 13.3777 11.3865 174.354 4.96663 91.2701 -24.5133 -2.67133 -2.10812 75.0609 -6.54508 -3.1132 38.1164 0.3741 -4.94389 0.614879 7.8658 -89.9959 11.1435 1.22578 -0.111384 -0.52685 1.21969 -0.16523 -23.0665 1.20257 0.262214 -3.05388 1.20258 0.262219 92.5877 -53.3584 -96.2467 12.6183 -13.4246 2.35465 -14.1761 -14.2285 -70.8532 -21.3362 -0.719905 -0.865536 -99.0271 -51.7295 66.0185 -26.5372 11.675 23.7288 2.1646 5.30347 -35.0696 4.59629 0.0797414 -1.57369 5.65828 -2.39868 3.73836 7.56312 -2.87572 0.788751 
